<?xml version="1.0" encoding="UTF-8" standalone="no"?>
<svg
   xmlns="http://www.w3.org/2000/svg"
   width="2048"
   height="2048"
   viewBox="0 0 2048 2048">
   <path
       style="opacity:1;fill:#474647;fill-opacity:1;fill-rule:nonzero;stroke:none;stroke-width:1.5;stroke-linecap:round;stroke-linejoin:round;stroke-miterlimit:4;stroke-dasharray:none;stroke-dashoffset:0;stroke-opacity:1"
       d="M 0 0 L 0 2048 L 2048 2048 L 2048 0 L 0 0 z M 1023.9980469 621.9609375 A 402.03866577 402.03866577 0 0 1 1426.0371094 1024.0019531 A 402.03866577 402.03866577 0 0 1 1409.1875 1138.1621094 L 1615.046875 1197.2265625 A 152.35183716 152.35183716 0 0 1 1746.6074219 1121.3339844 A 152.35183716 152.35183716 0 0 1 1898.9589844 1273.6855469 A 152.35183716 152.35183716 0 0 1 1746.6074219 1426.0390625 A 152.35183716 152.35183716 0 0 1 1594.2558594 1273.6855469 A 152.35183716 152.35183716 0 0 1 1595.0917969 1259.1621094 L 1385.5722656 1199.046875 A 402.03866577 402.03866577 0 0 1 1023.9980469 1426.0390625 A 402.03866577 402.03866577 0 0 1 662.52734375 1198.8378906 L 458.11914062 1257.4882812 A 152.35183716 152.35183716 0 0 1 459.02929688 1273.6855469 A 152.35183716 152.35183716 0 0 1 306.67773438 1426.0390625 A 152.35183716 152.35183716 0 0 1 154.32617188 1273.6855469 A 152.35183716 152.35183716 0 0 1 306.67773438 1121.3339844 A 152.35183716 152.35183716 0 0 1 437.39257812 1195.7734375 L 638.69335938 1138.015625 A 402.03866577 402.03866577 0 0 1 621.9609375 1024.0019531 A 402.03866577 402.03866577 0 0 1 1023.9980469 621.9609375 z M 1023.9980469 723.78515625 A 300.21530151 300.21530151 0 0 0 723.78515625 1024.0019531 A 300.21530151 300.21530151 0 0 0 1023.9980469 1324.2167969 A 300.21530151 300.21530151 0 0 0 1324.2148438 1024.0019531 A 300.21530151 300.21530151 0 0 0 1023.9980469 723.78515625 z M 1024 874.09375 A 149.90663147 149.90663147 0 0 1 1120.5722656 909.34570312 A 149.90663147 149.90663147 0 0 1 1131.5371094 919.56054688 A 149.90663147 149.90663147 0 0 1 1163.71875 969.6796875 A 149.90663147 149.90663147 0 0 1 1163.71875 969.68164062 A 149.90663147 149.90663147 0 0 1 1173.53125 1013.3964844 A 149.90663147 149.90663147 0 0 1 1173.90625 1024 A 149.90663147 149.90663147 0 0 1 1138.6542969 1120.5722656 A 149.90663147 149.90663147 0 0 1 1128.4394531 1131.5371094 A 149.90663147 149.90663147 0 0 1 1091.9960938 1157.5976562 A 149.90663147 149.90663147 0 0 1 1078.3183594 1163.71875 A 149.90663147 149.90663147 0 0 1 1024 1173.90625 A 149.90663147 149.90663147 0 0 1 927.42773438 1138.6542969 A 149.90663147 149.90663147 0 0 1 916.46289062 1128.4394531 A 149.90663147 149.90663147 0 0 1 906.57421875 1117.1835938 A 149.90663147 149.90663147 0 0 1 884.28125 1078.3183594 A 149.90663147 149.90663147 0 0 1 879.55664062 1064.0996094 A 149.90663147 149.90663147 0 0 1 874.09375 1024 A 149.90663147 149.90663147 0 0 1 909.34570312 927.42773438 A 149.90663147 149.90663147 0 0 1 919.56054688 916.46289062 A 149.90663147 149.90663147 0 0 1 1024 874.09375 z M 306.67773438 1192.0449219 A 81.641159058 81.641159058 0 0 0 225.03710938 1273.6855469 A 81.641159058 81.641159058 0 0 0 306.67773438 1355.328125 A 81.641159058 81.641159058 0 0 0 388.31835938 1273.6855469 A 81.641159058 81.641159058 0 0 0 306.67773438 1192.0449219 z M 1746.6074219 1192.0449219 A 81.641159058 81.641159058 0 0 0 1664.9667969 1273.6855469 A 81.641159058 81.641159058 0 0 0 1746.6074219 1355.328125 A 81.641159058 81.641159058 0 0 0 1828.2480469 1273.6855469 A 81.641159058 81.641159058 0 0 0 1746.6074219 1192.0449219 z " />
</svg>
