<?xml version="1.0" encoding="UTF-8" standalone="no"?>
<svg xmlns="http://www.w3.org/2000/svg" width="2048" height="2048" viewBox="0 0 2048 2048">
    <path
        style="color:#000000;clip-rule:nonzero;display:inline;overflow:visible;visibility:visible;opacity:1;isolation:auto;mix-blend-mode:normal;color-interpolation:sRGB;color-interpolation-filters:linearRGB;solid-color:#000000;solid-opacity:1;fill:#474647;fill-opacity:1;fill-rule:nonzero;stroke:none;stroke-width:60;stroke-linecap:round;stroke-linejoin:round;stroke-miterlimit:4;stroke-dasharray:none;stroke-dashoffset:0;stroke-opacity:1;color-rendering:auto;image-rendering:auto;shape-rendering:auto;text-rendering:auto;enable-background:accumulate"
        d="M 0 0 L 0 2048 L 2048 2048 L 2048 0 L 0 0 z M 1024 657.59960938 C 1226.2833333 657.59960938 1390.4003906 821.7166667 1390.4003906 1024 C 1390.4003906 1024.1655983 1390.3967043 1024.3305467 1390.3964844 1024.4960938 C 1468.0103676 1041.0747064 1540.9738974 1062.733315 1607.4921875 1089.1894531 L 1614.3847656 1091.9394531 C 1647.9654697 1050.492174 1699.2710617 1024 1756.8007812 1024 C 1858.0187812 1024 1940 1105.9812188 1940 1207.1992188 C 1940 1308.4172186 1858.0187813 1390.4003906 1756.8007812 1390.4003906 C 1655.5827814 1390.4003906 1573.5996094 1308.4172187 1573.5996094 1207.1992188 C 1573.5996094 1189.9635611 1575.9812121 1173.2868324 1580.4257812 1157.4765625 L 1580.3164062 1157.4316406 C 1519.93986 1133.3685243 1453.5629607 1113.3568895 1382.9355469 1097.90625 C 1348.7237907 1264.7904735 1200.9675249 1390.4003906 1024 1390.4003906 C 847.05119122 1390.4003906 699.30832341 1264.8168276 665.07617188 1097.9589844 C 594.35566601 1113.3695657 528.05095406 1133.4981165 467.68359375 1157.4316406 L 467.57421875 1157.4765625 C 472.01878789 1173.2868324 474.40039063 1189.9635611 474.40039062 1207.1992188 C 474.40039062 1308.4172186 392.41721873 1390.4003906 291.19921875 1390.4003906 C 189.98121877 1390.4003906 108 1308.4172187 108 1207.1992188 C 108 1105.9812188 189.98121877 1024 291.19921875 1024 C 348.80381114 1024 400.16792865 1050.5613618 433.74609375 1092.1015625 L 440.66015625 1089.3417969 C 504.78015624 1063.8464635 575.16045314 1042.6243958 649.81445312 1026.2890625 L 657.60351562 1024.5917969 C 657.60320271 1024.394327 657.59960938 1024.1975428 657.59960938 1024 C 657.59960938 821.7166667 821.71666671 657.59960938 1024 657.59960938 z M 1024 730.88085938 C 862.32600003 730.88085938 730.88085938 862.32600002 730.88085938 1024 C 730.88085938 1185.674 862.32600003 1317.1191406 1024 1317.1191406 C 1185.674 1317.1191406 1317.1191406 1185.674 1317.1191406 1024 C 1317.1191406 862.32600002 1185.674 730.88085938 1024 730.88085938 z M 1024 877.43945312 A 146.55999756 146.55999756 0 0 1 1170.5605469 1024 A 146.55999756 146.55999756 0 0 1 1024 1170.5605469 A 146.55999756 146.55999756 0 0 1 877.43945312 1024 A 146.55999756 146.55999756 0 0 1 1024 877.43945312 z M 291.19921875 1097.2792969 C 230.5905521 1097.2792969 181.27929688 1146.5905519 181.27929688 1207.1992188 C 181.27929688 1267.8078854 230.5905521 1317.1191406 291.19921875 1317.1191406 C 351.80788541 1317.1191406 401.11914064 1267.8078854 401.11914062 1207.1992188 C 401.11914065 1146.5905521 351.80788541 1097.2792969 291.19921875 1097.2792969 z M 1756.8007812 1097.2792969 C 1696.1921146 1097.2792969 1646.8808594 1146.5905518 1646.8808594 1207.1992188 C 1646.8808594 1267.8078854 1696.1921146 1317.1191406 1756.8007812 1317.1191406 C 1817.4094479 1317.1191406 1866.7207031 1267.8078854 1866.7207031 1207.1992188 C 1866.7207031 1146.5905521 1817.4094479 1097.2792969 1756.8007812 1097.2792969 z " />
</svg>
